<svg id="Layer_1" data-name="Layer 1" xmlns="http://www.w3.org/2000/svg" viewBox="0 0 396.45 91.49"><defs><style>.cls-1,.cls-2{fill:#fff;stroke:#fff;stroke-miterlimit:10;}.cls-2{stroke-width:4px;}</style></defs><title>white-logo</title><path class="cls-1" d="M249.92,6.22h49.22v9.5h-37.8V94H249.92V6.22Z" transform="translate(-2.12 -4.83)"/><path class="cls-1" d="M250.4,7.33h11.33V85.58h37.5v9.5H250.4V7.33Z" transform="translate(-2.12 -4.83)"/><path class="cls-1" d="M93.24,91.66c-4.17,2.08-12.5,4.17-23.17,4.17-24.74,0-43.36-15.62-43.36-44.4C26.7,24,45.32,5.33,72.53,5.33c10.94,0,17.84,2.34,20.83,3.91l-2.73,9.24a41.27,41.27,0,0,0-17.71-3.65C52.35,14.84,38.68,28,38.68,51c0,21.48,12.37,35.28,33.72,35.28,6.9,0,13.93-1.43,18.49-3.65Z" transform="translate(-2.12 -4.83)"/><path class="cls-1" d="M188.14,6.2h11.33V84.45H237V94H188.14V6.2Z" transform="translate(-2.12 -4.83)"/><path class="cls-1" d="M314.37,7.37a109.78,109.78,0,0,1,20.7-1.82c11.33,0,18.62,2,24.09,6.38,4.56,3.39,7.29,8.59,7.29,15.49,0,8.46-5.6,15.88-14.84,19.27V47c8.33,2.08,18.1,9,18.1,22a23.65,23.65,0,0,1-7.42,17.58c-6.12,5.6-16,8.2-30.33,8.2a132.35,132.35,0,0,1-17.58-1V7.37Zm11.33,35.93H336c12,0,19-6.25,19-14.71,0-10.29-7.81-14.32-19.27-14.32a48.59,48.59,0,0,0-10,.78V43.31Zm0,42.05a60.55,60.55,0,0,0,9.5.52c11.72,0,22.52-4.3,22.52-17.06,0-12-10.29-16.93-22.65-16.93h-9.37V85.36Z" transform="translate(-2.12 -4.83)"/><path class="cls-1" d="M141.8,6.36L174,93.7h-9.28L138.3,20.1H138L111.66,93.7h-9.28L134.53,6.36h7.27Z" transform="translate(-2.12 -4.83)"/><line class="cls-2" x1="0.08" y1="57.42" x2="396.37" y2="41.06"/></svg>